<svg width="186" height="110" viewBox="0 0 186 110" fill="none" xmlns="http://www.w3.org/2000/svg">
<mask id="mask0_68_5" style="mask-type:alpha" maskUnits="userSpaceOnUse" x="0" y="0" width="110" height="110">
<rect y="86" width="108" height="24" fill="#D9D9D9"/>
<rect y="1" width="110" height="23" fill="#D9D9D9"/>
<rect width="7" height="98" fill="#D9D9D9"/>
</mask>
<g mask="url(#mask0_68_5)">
<path d="M93 108.75H15C7.40609 108.75 1.25 102.594 1.25 95V15.9104C1.25 8.34866 7.35602 2.20597 14.9177 2.1607L83.5 1.75H83.5037H93.5C101.098 1.75 107.474 7.92539 107.999 15.5642C108.261 19.3709 108.442 22.9267 108.252 26.4323C108.131 28.6606 107.851 30.8731 107.561 33.1644C107.508 33.5902 107.453 34.0187 107.4 34.4506C107.06 37.1854 106.75 40.026 106.75 43V43.0226V43.0453V43.0679V43.0906V43.1133V43.1359V43.1586V43.1813V43.204V43.2266V43.2493V43.272V43.2947V43.3175V43.3402V43.3629V43.3856V43.4084V43.4311V43.4538V43.4766V43.4994V43.5221V43.5449V43.5677V43.5905V43.6132V43.636V43.6588V43.6816V43.7044V43.7273V43.7501V43.7729V43.7957V43.8186V43.8414V43.8643V43.8871V43.91V43.9329V43.9557V43.9786V44.0015V44.0244V44.0473V44.0702V44.0931V44.116V44.1389V44.1619V44.1848V44.2077V44.2307V44.2536V44.2766V44.2996V44.3225V44.3455V44.3685V44.3915V44.4145V44.4375V44.4605V44.4835V44.5065V44.5295V44.5526V44.5756V44.5986V44.6217V44.6447V44.6678V44.6909V44.714V44.737V44.7601V44.7832V44.8063V44.8294V44.8525V44.8756V44.8988V44.9219V44.945V44.9682V44.9913V45.0145V45.0376V45.0608V45.084V45.1072V45.1303V45.1535V45.1767V45.1999V45.2231V45.2464V45.2696V45.2928V45.3161V45.3393V45.3625V45.3858V45.4091V45.4323V45.4556V45.4789V45.5022V45.5255V45.5488V45.5721V45.5954V45.6187V45.642V45.6654V45.6887V45.7121V45.7354V45.7588V45.7821V45.8055V45.8289V45.8523V45.8757V45.8991V45.9225V45.9459V45.9693V45.9927V46.0162V46.0396V46.063V46.0865V46.1099V46.1334V46.1569V46.1804V46.2038V46.2273V46.2508V46.2743V46.2979V46.3214V46.3449V46.3684V46.392V46.4155V46.4391V46.4626V46.4862V46.5098V46.5333V46.5569V46.5805V46.6041V46.6277V46.6513V46.675V46.6986V46.7222V46.7459V46.7695V46.7932V46.8168V46.8405V46.8642V46.8879V46.9115V46.9352V46.9589V46.9827V47.0064V47.0301V47.0538V47.0776V47.1013V47.1251V47.1488V47.1726V47.1964V47.2201V47.2439V47.2677V47.2915V47.3153V47.3391V47.363V47.3868V47.4106V47.4345V47.4583V47.4822V47.506V47.5299V47.5538V47.5777V47.6016V47.6255V47.6494V47.6733V47.6972V47.7211V47.7451V47.769V47.793V47.8169V47.8409V47.8649V47.8889V47.9128V47.9368V47.9608V47.9848V48.0089V48.0329V48.0569V48.081V48.105V48.1291V48.1531V48.1772V48.2013V48.2253V48.2494V48.2735V48.2976V48.3217V48.3459V48.37V48.3941V48.4183V48.4424V48.4666V48.4907V48.5149V48.5391V48.5633V48.5875V48.6117V48.6359V48.6601V48.6843V48.7085V48.7328V48.757V48.7813V48.8055V48.8298V48.8541V48.8784V48.9027V48.927V48.9513V48.9756V48.9999V49.0242V49.0486V49.0729V49.0973V49.1216V49.146V49.1704V49.1948V49.2191V49.2435V49.268V49.2924V49.3168V49.3412V49.3657V49.3901V49.4146V49.439V49.4635V49.488V49.5124V49.5369V49.5614V49.5859V49.6105V49.635V49.6595V49.6841V49.7086V49.7332V49.7577V49.7823V49.8069V49.8315V49.856V49.8806V49.9053V49.9299V49.9545V49.9791V50.0038V50.0284V50.0531V50.0778V50.1024V50.1271V50.1518V50.1765V50.2012V50.2259V50.2506V50.2754V50.3001V50.3248V50.3496V50.3744V50.3991V50.4239V50.4487V50.4735V50.4983V50.5231V50.5479V50.5728V50.5976V50.6224V50.6473V50.6721V50.697V50.7219V50.7468V50.7717V50.7966V50.8215V50.8464V50.8713V50.8962V50.9212V50.9461V50.9711V50.9961V51.021V51.046V51.071V51.096V51.121V51.146V51.1711V51.1961V51.2211V51.2462V51.2712V51.2963V51.3214V51.3465V51.3716V51.3967V51.4218V51.4469V51.472V51.4971V51.5223V51.5474V51.5726V51.5978V51.6229V51.6481V51.6733V51.6985V51.7237V51.7489V51.7742V51.7994V51.8247V51.8499V51.8752V51.9004V51.9257V51.951V51.9763V52.0016V52.0269V52.0522V52.0776V52.1029V52.1283V52.1536V52.179V52.2043V52.2297V52.2551V52.2805V52.3059V52.3313V52.3568V52.3822V52.4076V52.4331V52.4586V52.484V52.5095V52.535V52.5605V52.586V52.6115V52.637V52.6626V52.6881V52.7136V52.7392V52.7648V52.7903V52.8159V52.8415V52.8671V52.8927V52.9184V52.944V52.9696V52.9953V53.0209V53.0466V53.0723V53.0979V53.1236V53.1493V53.175V53.2008V53.2265V53.2522V53.278V53.3037V53.3295V53.3552V53.381V53.4068V53.4326V53.4584V53.4842V53.5101V53.5359V53.5617V53.5876V53.6135V53.6393V53.6652V53.6911V53.717V53.7429V53.7688V53.7948V53.8207V53.8466V53.8726V53.8985V53.9245V53.9505V53.9765V54.0025V54.0285V54.0545V54.0805V54.1066V54.1326V54.1587V54.1847V54.2108V54.2369V54.263V54.2891V54.3152V54.3413V54.3675V54.3936V54.4198V54.4459V54.4721V54.4983V54.5244V54.5506V54.5768V54.6031V54.6293V54.6555V54.6818V54.708V54.7343V54.7605V54.7868V54.8131V54.8394V54.8657V54.892V54.9184V54.9447V54.971V54.9974V55.0238V55.0501V55.0765V55.1029V55.1293V55.1557V55.1822V55.2086V55.235V55.2615V55.288V55.3144V55.3409V55.3674V55.3939V55.4204V55.4469V55.4735V55.5V95C106.75 102.594 100.594 108.75 93 108.75Z" stroke="black" stroke-width="2.5"/>
</g>
<path d="M12.052 42.216C10.18 42.216 8.38 41.916 6.652 41.316C4.948 40.692 3.628 39.9 2.692 38.94L3.736 36.888C4.624 37.752 5.812 38.484 7.3 39.084C8.812 39.66 10.396 39.948 12.052 39.948C13.636 39.948 14.92 39.756 15.904 39.372C16.912 38.964 17.644 38.424 18.1 37.752C18.58 37.08 18.82 36.336 18.82 35.52C18.82 34.536 18.532 33.744 17.956 33.144C17.404 32.544 16.672 32.076 15.76 31.74C14.848 31.38 13.84 31.068 12.736 30.804C11.632 30.54 10.528 30.264 9.424 29.976C8.32 29.664 7.3 29.256 6.364 28.752C5.452 28.248 4.708 27.588 4.132 26.772C3.58 25.932 3.304 24.84 3.304 23.496C3.304 22.248 3.628 21.108 4.276 20.076C4.948 19.02 5.968 18.18 7.336 17.556C8.704 16.908 10.456 16.584 12.592 16.584C14.008 16.584 15.412 16.788 16.804 17.196C18.196 17.58 19.396 18.12 20.404 18.816L19.504 20.94C18.424 20.22 17.272 19.692 16.048 19.356C14.848 19.02 13.684 18.852 12.556 18.852C11.044 18.852 9.796 19.056 8.812 19.464C7.828 19.872 7.096 20.424 6.616 21.12C6.16 21.792 5.932 22.56 5.932 23.424C5.932 24.408 6.208 25.2 6.76 25.8C7.336 26.4 8.08 26.868 8.992 27.204C9.928 27.54 10.948 27.84 12.052 28.104C13.156 28.368 14.248 28.656 15.328 28.968C16.432 29.28 17.44 29.688 18.352 30.192C19.288 30.672 20.032 31.32 20.584 32.136C21.16 32.952 21.448 34.02 21.448 35.34C21.448 36.564 21.112 37.704 20.44 38.76C19.768 39.792 18.736 40.632 17.344 41.28C15.976 41.904 14.212 42.216 12.052 42.216ZM34.8844 42.18C33.2764 42.18 31.8724 41.88 30.6724 41.28C29.4724 40.68 28.5364 39.78 27.8644 38.58C27.2164 37.38 26.8924 35.88 26.8924 34.08V23.1H29.4484V33.792C29.4484 35.808 29.9404 37.332 30.9244 38.364C31.9324 39.372 33.3364 39.876 35.1364 39.876C36.4564 39.876 37.5964 39.612 38.5564 39.084C39.5404 38.532 40.2844 37.74 40.7884 36.708C41.3164 35.676 41.5804 34.44 41.5804 33V23.1H44.1364V42H41.6884V36.816L42.0844 37.752C41.4844 39.144 40.5484 40.236 39.2764 41.028C38.0284 41.796 36.5644 42.18 34.8844 42.18ZM59.4679 42.18C57.5959 42.18 55.9159 41.772 54.4279 40.956C52.9639 40.116 51.8119 38.976 50.9719 37.536C50.1319 36.072 49.7119 34.404 49.7119 32.532C49.7119 30.636 50.1319 28.968 50.9719 27.528C51.8119 26.088 52.9639 24.96 54.4279 24.144C55.9159 23.328 57.5959 22.92 59.4679 22.92C61.0759 22.92 62.5279 23.232 63.8239 23.856C65.1199 24.48 66.1399 25.416 66.8839 26.664L64.9759 27.96C64.3279 27 63.5239 26.292 62.5639 25.836C61.6039 25.38 60.5599 25.152 59.4319 25.152C58.0879 25.152 56.8759 25.464 55.7959 26.088C54.7159 26.688 53.8639 27.54 53.2399 28.644C52.6159 29.748 52.3039 31.044 52.3039 32.532C52.3039 34.02 52.6159 35.316 53.2399 36.42C53.8639 37.524 54.7159 38.388 55.7959 39.012C56.8759 39.612 58.0879 39.912 59.4319 39.912C60.5599 39.912 61.6039 39.684 62.5639 39.228C63.5239 38.772 64.3279 38.076 64.9759 37.14L66.8839 38.436C66.1399 39.66 65.1199 40.596 63.8239 41.244C62.5279 41.868 61.0759 42.18 59.4679 42.18ZM79.7967 42.18C77.9247 42.18 76.2447 41.772 74.7567 40.956C73.2927 40.116 72.1407 38.976 71.3007 37.536C70.4607 36.072 70.0407 34.404 70.0407 32.532C70.0407 30.636 70.4607 28.968 71.3007 27.528C72.1407 26.088 73.2927 24.96 74.7567 24.144C76.2447 23.328 77.9247 22.92 79.7967 22.92C81.4047 22.92 82.8567 23.232 84.1527 23.856C85.4487 24.48 86.4687 25.416 87.2127 26.664L85.3047 27.96C84.6567 27 83.8527 26.292 82.8927 25.836C81.9327 25.38 80.8887 25.152 79.7607 25.152C78.4167 25.152 77.2047 25.464 76.1247 26.088C75.0447 26.688 74.1927 27.54 73.5687 28.644C72.9447 29.748 72.6327 31.044 72.6327 32.532C72.6327 34.02 72.9447 35.316 73.5687 36.42C74.1927 37.524 75.0447 38.388 76.1247 39.012C77.2047 39.612 78.4167 39.912 79.7607 39.912C80.8887 39.912 81.9327 39.684 82.8927 39.228C83.8527 38.772 84.6567 38.076 85.3047 37.14L87.2127 38.436C86.4687 39.66 85.4487 40.596 84.1527 41.244C82.8567 41.868 81.4047 42.18 79.7967 42.18ZM100.406 42.18C98.7978 42.18 97.3938 41.88 96.1938 41.28C94.9938 40.68 94.0578 39.78 93.3858 38.58C92.7378 37.38 92.4138 35.88 92.4138 34.08V23.1H94.9698V33.792C94.9698 35.808 95.4618 37.332 96.4458 38.364C97.4538 39.372 98.8578 39.876 100.658 39.876C101.978 39.876 103.118 39.612 104.078 39.084C105.062 38.532 105.806 37.74 106.31 36.708C106.838 35.676 107.102 34.44 107.102 33V23.1H109.658V42H107.21V36.816L107.606 37.752C107.006 39.144 106.07 40.236 104.798 41.028C103.55 41.796 102.086 42.18 100.406 42.18ZM117.141 42V15.288H119.697V42H117.141ZM135.197 42.18C133.229 42.18 131.501 41.772 130.013 40.956C128.525 40.116 127.361 38.976 126.521 37.536C125.681 36.072 125.261 34.404 125.261 32.532C125.261 30.66 125.657 29.004 126.449 27.564C127.265 26.124 128.369 24.996 129.761 24.18C131.177 23.34 132.761 22.92 134.513 22.92C136.289 22.92 137.861 23.328 139.229 24.144C140.621 24.936 141.713 26.064 142.505 27.528C143.297 28.968 143.693 30.636 143.693 32.532C143.693 32.652 143.681 32.784 143.657 32.928C143.657 33.048 143.657 33.18 143.657 33.324H127.205V31.416H142.289L141.281 32.172C141.281 30.804 140.981 29.592 140.381 28.536C139.805 27.456 139.013 26.616 138.005 26.016C136.997 25.416 135.833 25.116 134.513 25.116C133.217 25.116 132.053 25.416 131.021 26.016C129.989 26.616 129.185 27.456 128.609 28.536C128.033 29.616 127.745 30.852 127.745 32.244V32.64C127.745 34.08 128.057 35.352 128.681 36.456C129.329 37.536 130.217 38.388 131.345 39.012C132.497 39.612 133.805 39.912 135.269 39.912C136.421 39.912 137.489 39.708 138.473 39.3C139.481 38.892 140.345 38.268 141.065 37.428L142.505 39.084C141.665 40.092 140.609 40.86 139.337 41.388C138.089 41.916 136.709 42.18 135.197 42.18ZM158.904 22.92C160.44 22.92 161.784 23.22 162.936 23.82C164.112 24.396 165.024 25.284 165.672 26.484C166.344 27.684 166.68 29.196 166.68 31.02V42H164.124V31.272C164.124 29.28 163.62 27.78 162.612 26.772C161.628 25.74 160.236 25.224 158.436 25.224C157.092 25.224 155.916 25.5 154.908 26.052C153.924 26.58 153.156 27.36 152.604 28.392C152.076 29.4 151.812 30.624 151.812 32.064V42H149.256V23.1H151.704V28.284L151.308 27.312C151.908 25.944 152.868 24.876 154.188 24.108C155.508 23.316 157.08 22.92 158.904 22.92ZM179.92 42.18C178.144 42.18 176.776 41.7 175.816 40.74C174.856 39.78 174.376 38.424 174.376 36.672V18.924H176.932V36.528C176.932 37.632 177.208 38.484 177.76 39.084C178.336 39.684 179.152 39.984 180.208 39.984C181.336 39.984 182.272 39.66 183.016 39.012L183.916 40.848C183.412 41.304 182.8 41.64 182.08 41.856C181.384 42.072 180.664 42.18 179.92 42.18ZM170.992 25.224V23.1H182.692V25.224H170.992ZM5.104 86V60.8H14.536C16.672 60.8 18.508 61.148 20.044 61.844C21.58 62.516 22.756 63.5 23.572 64.796C24.412 66.068 24.832 67.616 24.832 69.44C24.832 71.216 24.412 72.752 23.572 74.048C22.756 75.32 21.58 76.304 20.044 77C18.508 77.672 16.672 78.008 14.536 78.008H6.58L7.768 76.784V86H5.104ZM22.312 86L15.832 76.856H18.712L25.228 86H22.312ZM7.768 77L6.58 75.74H14.464C16.984 75.74 18.892 75.188 20.188 74.084C21.508 72.98 22.168 71.432 22.168 69.44C22.168 67.424 21.508 65.864 20.188 64.76C18.892 63.656 16.984 63.104 14.464 63.104H6.58L7.768 61.844V77ZM38.6436 86.18C36.8196 86.18 35.1756 85.772 33.7116 84.956C32.2716 84.116 31.1316 82.976 30.2916 81.536C29.4516 80.072 29.0316 78.404 29.0316 76.532C29.0316 74.636 29.4516 72.968 30.2916 71.528C31.1316 70.088 32.2716 68.96 33.7116 68.144C35.1516 67.328 36.7956 66.92 38.6436 66.92C40.5156 66.92 42.1716 67.328 43.6116 68.144C45.0756 68.96 46.2156 70.088 47.0316 71.528C47.8716 72.968 48.2916 74.636 48.2916 76.532C48.2916 78.404 47.8716 80.072 47.0316 81.536C46.2156 82.976 45.0756 84.116 43.6116 84.956C42.1476 85.772 40.4916 86.18 38.6436 86.18ZM38.6436 83.912C40.0116 83.912 41.2236 83.612 42.2796 83.012C43.3356 82.388 44.1636 81.524 44.7636 80.42C45.3876 79.292 45.6996 77.996 45.6996 76.532C45.6996 75.044 45.3876 73.748 44.7636 72.644C44.1636 71.54 43.3356 70.688 42.2796 70.088C41.2236 69.464 40.0236 69.152 38.6796 69.152C37.3356 69.152 36.1356 69.464 35.0796 70.088C34.0236 70.688 33.1836 71.54 32.5596 72.644C31.9356 73.748 31.6236 75.044 31.6236 76.532C31.6236 77.996 31.9356 79.292 32.5596 80.42C33.1836 81.524 34.0236 82.388 35.0796 83.012C36.1356 83.612 37.3236 83.912 38.6436 83.912ZM61.5739 86.18C59.7499 86.18 58.1059 85.772 56.6419 84.956C55.2019 84.116 54.0619 82.976 53.2219 81.536C52.3819 80.072 51.9619 78.404 51.9619 76.532C51.9619 74.636 52.3819 72.968 53.2219 71.528C54.0619 70.088 55.2019 68.96 56.6419 68.144C58.0819 67.328 59.7259 66.92 61.5739 66.92C63.4459 66.92 65.1019 67.328 66.5419 68.144C68.0059 68.96 69.1459 70.088 69.9619 71.528C70.8019 72.968 71.2219 74.636 71.2219 76.532C71.2219 78.404 70.8019 80.072 69.9619 81.536C69.1459 82.976 68.0059 84.116 66.5419 84.956C65.0779 85.772 63.4219 86.18 61.5739 86.18ZM61.5739 83.912C62.9419 83.912 64.1539 83.612 65.2099 83.012C66.2659 82.388 67.0939 81.524 67.6939 80.42C68.3179 79.292 68.6299 77.996 68.6299 76.532C68.6299 75.044 68.3179 73.748 67.6939 72.644C67.0939 71.54 66.2659 70.688 65.2099 70.088C64.1539 69.464 62.9539 69.152 61.6099 69.152C60.2659 69.152 59.0659 69.464 58.0099 70.088C56.9539 70.688 56.1139 71.54 55.4899 72.644C54.8659 73.748 54.5539 75.044 54.5539 76.532C54.5539 77.996 54.8659 79.292 55.4899 80.42C56.1139 81.524 56.9539 82.388 58.0099 83.012C59.0659 83.612 60.2539 83.912 61.5739 83.912ZM100.416 66.92C101.952 66.92 103.284 67.22 104.412 67.82C105.564 68.396 106.452 69.284 107.076 70.484C107.724 71.684 108.048 73.196 108.048 75.02V86H105.492V75.272C105.492 73.28 105.012 71.78 104.052 70.772C103.116 69.74 101.784 69.224 100.056 69.224C98.7603 69.224 97.6323 69.5 96.6723 70.052C95.7363 70.58 95.0043 71.36 94.4763 72.392C93.9723 73.4 93.7203 74.624 93.7203 76.064V86H91.1643V75.272C91.1643 73.28 90.6843 71.78 89.7243 70.772C88.7643 69.74 87.4203 69.224 85.6923 69.224C84.4203 69.224 83.3043 69.5 82.3443 70.052C81.3843 70.58 80.6403 71.36 80.1123 72.392C79.6083 73.4 79.3563 74.624 79.3563 76.064V86H76.8003V67.1H79.2483V72.212L78.8523 71.312C79.4283 69.944 80.3523 68.876 81.6243 68.108C82.9203 67.316 84.4443 66.92 86.1963 66.92C88.0443 66.92 89.6163 67.388 90.9123 68.324C92.2083 69.236 93.0483 70.616 93.4323 72.464L92.4243 72.068C92.9763 70.532 93.9483 69.296 95.3403 68.36C96.7563 67.4 98.4483 66.92 100.416 66.92Z" fill="black"/>
</svg>
